{"title":"Rio 2011 DVDrip English Klam","uid":6502687,"size":1474266585,"categoryP":"video","categoryS":"movies","magnet":"?xt=urn:btih:d7734351196b1d910375ad53cf1a516a6a93d8ed&amp;dn=Rio+2011+DVDrip+English+Klam&amp;tr=udp%3A%2F%2Ftracker.openbittorrent.com%3A80&amp;tr=udp%3A%2F%2Fopen.demonii.com%3A1337&amp;tr=udp%3A%2F%2Ftracker.coppersurfer.tk%3A6969&amp;tr=udp%3A%2F%2Fexodus.desync.com%3A6969","seeders":2,"leechers":0,"uploader":"Klambake","files":-1,"time":1309304620,"description":"With the voices of Anne Hathaway, Jesse Eisenberg and Leslie Mann\n\nBlu is een zeldzame Macaw papegaai die werd gevangen in de jungle van Rio. Hij belandde dankzij smokkelaars in Minnesota, waar hij gevonden werd en nu al vijftien jaar verzorgd wordt door Linda. De twee zijn onafscheidelijk. Op een dag komt een professor langs bij Linda om te vragen of zij en Blu mee gaan naar Rio om daar zijn ras te redden; Blu is namelijk het laatste mannetje van zijn soort. In Rio verloopt alles niet bepaald zoals gepland en beland Blu in een avontuur, samen met zijn soortgenoot Jewel en andere nieuwe vrienden.\n\nWhen Blu, a domesticated macaw from small-town Minnesota, meets the fiercely independent Jewel, he takes off on an adventure to Rio de Janeiro with this bird of his dreams. \n\n------------------ Dutch Friends ------------------\nYou can find my Friends at: http://www.Film-Test.nl \n------ They got my dutchs subs ---- and more ------\n\nGeneral:\n\nComplete name                    : Rio\\Rio.avi\nFormat                           : AVI\nFormat/Info                      : Audio Video Interleave\nFile size                        : 1.37 GiB\nDuration                         : 1h 35mn\nOverall bit rate                 : 2 048 Kbps\n\nVideo:\n\nFormat                           : MPEG-4 Visual\nFormat profile                   : Simple@L3\nFormat settings, BVOP            : No\nFormat settings, QPel            : No\nFormat settings, GMC             : No warppoints\nFormat settings, Matrix          : Default (H.263)\nCodec ID                         : XVID\nCodec ID/Hint                    : XviD\nDuration                         : 1h 35mn\nBit rate                         : 1 589 Kbps\nWidth                            : 720 pixels\nHeight                           : 304 pixels\nDisplay aspect ratio             : 2.35:1\nFrame rate                       : 23.976 fps\nColor space                      : YUV\nChroma subsampling               : 4:2:0\nBit depth                        : 8 bits\nScan type                        : Progressive\nBits/(Pixel*Frame)               : 0.303\nStream size                      : 1.06 GiB (78%)\nWriting library                  : XviD 1.1.2 (UTC 2006-11-01)\n\nAudio:\n\nFormat                           : AC-3\nFormat/Info                      : Audio Coding 3\nMode extension                   : CM (complete main)\nCodec ID                         : 2000\nDuration                         : 1h 35mn\nBit rate mode                    : Constant\nBit rate                         : 448 Kbps\nChannel(s)                       : 6 channels\nChannel positions                : Front: L C R, Side: L R, LFE\nSampling rate                    : 48.0 KHz\nBit depth                        : 16 bits\nStream size                      : 307 MiB (22%)\nAlignment                        : Aligned on interleaves\nInterleave, duration             : 32 ms (0.77 video frame)\nInterleave, preload duration     : 608 ms\n\n\n","torrent":{"xt":"urn:btih:d7734351196b1d910375ad53cf1a516a6a93d8ed","amp;dn":"Rio+2011+DVDrip+English+Klam","amp;tr":["udp%3A%2F%2Ftracker.openbittorrent.com%3A80","udp%3A%2F%2Fopen.demonii.com%3A1337","udp%3A%2F%2Ftracker.coppersurfer.tk%3A6969","udp%3A%2F%2Fexodus.desync.com%3A6969"],"infoHash":"d7734351196b1d910375ad53cf1a516a6a93d8ed","infoHashBuffer":{"type":"Buffer","data":[215,115,67,81,25,107,29,145,3,117,173,83,207,26,81,106,106,147,216,237]},"announce":[],"urlList":[]}}